<svg width="25" height="25" viewBox="0 0 25 25" fill="none" xmlns="http://www.w3.org/2000/svg">
<path d="M9.375 12.5C10.6182 12.5 11.8105 12.0061 12.6896 11.1271C13.5686 10.248 14.0625 9.0557 14.0625 7.8125C14.0625 6.5693 13.5686 5.37701 12.6896 4.49794C11.8105 3.61886 10.6182 3.125 9.375 3.125C8.1318 3.125 6.93951 3.61886 6.06044 4.49794C5.18136 5.37701 4.6875 6.5693 4.6875 7.8125C4.6875 9.0557 5.18136 10.248 6.06044 11.1271C6.93951 12.0061 8.1318 12.5 9.375 12.5ZM12.5 7.8125C12.5 8.6413 12.1708 9.43616 11.5847 10.0222C10.9987 10.6083 10.2038 10.9375 9.375 10.9375C8.5462 10.9375 7.75134 10.6083 7.16529 10.0222C6.57924 9.43616 6.25 8.6413 6.25 7.8125C6.25 6.9837 6.57924 6.18884 7.16529 5.60279C7.75134 5.01674 8.5462 4.6875 9.375 4.6875C10.2038 4.6875 10.9987 5.01674 11.5847 5.60279C12.1708 6.18884 12.5 6.9837 12.5 7.8125ZM18.75 20.3125C18.75 21.875 17.1875 21.875 17.1875 21.875H1.5625C1.5625 21.875 0 21.875 0 20.3125C0 18.75 1.5625 14.0625 9.375 14.0625C17.1875 14.0625 18.75 18.75 18.75 20.3125ZM17.1875 20.3062C17.1859 19.9219 16.9469 18.7656 15.8875 17.7062C14.8688 16.6875 12.9516 15.625 9.375 15.625C5.79688 15.625 3.88125 16.6875 2.8625 17.7062C1.80313 18.7656 1.56562 19.9219 1.5625 20.3062H17.1875Z" fill="#004ADD"/>
<path fill-rule="evenodd" clip-rule="evenodd" d="M21.0938 7.8125C21.301 7.8125 21.4997 7.89481 21.6462 8.04132C21.7927 8.18784 21.875 8.38655 21.875 8.59375V10.9375H24.2188C24.426 10.9375 24.6247 11.0198 24.7712 11.1663C24.9177 11.3128 25 11.5115 25 11.7188C25 11.926 24.9177 12.1247 24.7712 12.2712C24.6247 12.4177 24.426 12.5 24.2188 12.5H21.875V14.8438C21.875 15.051 21.7927 15.2497 21.6462 15.3962C21.4997 15.5427 21.301 15.625 21.0938 15.625C20.8865 15.625 20.6878 15.5427 20.5413 15.3962C20.3948 15.2497 20.3125 15.051 20.3125 14.8438V12.5H17.9688C17.7615 12.5 17.5628 12.4177 17.4163 12.2712C17.2698 12.1247 17.1875 11.926 17.1875 11.7188C17.1875 11.5115 17.2698 11.3128 17.4163 11.1663C17.5628 11.0198 17.7615 10.9375 17.9688 10.9375H20.3125V8.59375C20.3125 8.38655 20.3948 8.18784 20.5413 8.04132C20.6878 7.89481 20.8865 7.8125 21.0938 7.8125Z" fill="#004ADD"/>
</svg>
