<svg width="1100" height="1100" viewBox="0 0 1100 1100" fill="none" xmlns="http://www.w3.org/2000/svg">
<path d="M550 1100C853.757 1100 1100 853.757 1100 550C1100 246.243 853.757 0 550 0C246.243 0 0 246.243 0 550C0 853.757 246.243 1100 550 1100Z" fill="url(#paint0_radial_212_90)"/>
<path d="M344.515 869.852H368.243L358.065 848.417C353.672 839.167 351.481 829.025 351.664 818.786L351.667 818.652V818.518C351.667 774.288 373.93 727.857 416.177 695.23L439.078 677.543L411.425 669.023C387.188 661.555 361.939 657.899 336.58 658.185C259.722 658.207 210.122 687.258 179.944 722.465C150.37 756.969 140 796.762 140 818.518C140 830.226 142.97 840.005 148.196 847.844C153.36 855.589 160.137 860.566 166.458 863.726C172.721 866.857 178.802 868.348 183.19 869.08C185.42 869.451 187.311 869.643 188.703 869.742C189.402 869.792 189.983 869.82 190.426 869.834C190.647 869.842 190.835 869.846 190.987 869.848C191.031 869.849 191.072 869.85 191.11 869.85C191.138 869.851 191.164 869.851 191.188 869.851L191.268 869.851L191.302 869.852L191.318 869.852C191.326 869.852 191.333 869.852 191.333 854.852V869.852H344.515Z" fill="#2B4C95" stroke="white" stroke-width="30"/>
<path d="M321.481 649.615C349.55 649.615 376.469 638.465 396.317 618.617C416.164 598.77 427.315 571.851 427.315 543.782C427.315 515.713 416.164 488.794 396.317 468.946C376.469 449.099 349.55 437.948 321.481 437.948C293.413 437.948 266.493 449.099 246.646 468.946C226.798 488.794 215.648 515.713 215.648 543.782C215.648 571.851 226.798 598.77 246.646 618.617C266.493 638.465 293.413 649.615 321.481 649.615Z" fill="#2B4C95" stroke="white" stroke-width="30"/>
<path d="M695.171 876C695.163 876 695.155 876 695.155 861V876H404.489V861C404.489 876 404.481 876 404.474 876L404.458 876L404.423 876L404.343 875.999C404.286 875.999 404.219 875.998 404.143 875.997C404.092 875.996 404.037 875.995 403.978 875.994C403.861 875.991 403.729 875.988 403.581 875.983C403.138 875.968 402.558 875.941 401.859 875.891C400.467 875.791 398.576 875.6 396.346 875.228C391.957 874.497 385.876 873.006 379.614 869.875C373.293 866.714 366.515 861.738 361.352 853.992C356.126 846.153 353.156 836.375 353.156 824.667C353.156 802.911 363.525 763.117 393.1 728.613C423.289 693.393 472.915 664.333 549.822 664.333C626.729 664.333 676.356 693.393 706.544 728.613C736.119 763.117 746.489 802.911 746.489 824.667C746.489 836.375 743.519 846.153 738.292 853.992C733.129 861.738 726.351 866.714 720.03 869.875C713.768 873.006 707.687 874.497 703.299 875.228C701.069 875.6 699.178 875.791 697.785 875.891C697.087 875.941 696.506 875.968 696.063 875.983C695.841 875.99 695.653 875.995 695.502 875.997C695.426 875.998 695.359 875.999 695.301 875.999L695.221 876L695.187 876L695.171 876ZM549.822 658C516.935 658 485.395 644.936 462.141 621.681C438.886 598.427 425.822 566.887 425.822 534C425.822 501.113 438.886 469.573 462.141 446.319C485.395 423.064 516.935 410 549.822 410C582.709 410 614.249 423.064 637.503 446.319C660.758 469.573 673.822 501.113 673.822 534C673.822 566.887 660.758 598.427 637.503 621.681C614.249 644.936 582.709 658 549.822 658Z" fill="#2B4C95" stroke="white" stroke-width="30"/>
<path d="M759.229 872.273H735.501L745.679 850.839C750.072 841.589 752.262 831.447 752.079 821.208L752.077 821.074V820.94C752.077 776.71 729.814 730.279 687.567 697.652L664.666 679.966L692.319 671.445C716.555 663.977 741.805 660.321 767.164 660.607C844.021 660.629 893.622 689.68 923.799 724.887C953.374 759.391 963.744 799.184 963.744 820.94C963.744 832.648 960.774 842.426 955.547 850.266C950.384 858.011 943.606 862.988 937.285 866.148C931.023 869.279 924.942 870.77 920.553 871.502C918.324 871.873 916.432 872.065 915.04 872.164C914.342 872.214 913.761 872.241 913.318 872.256C913.096 872.264 912.908 872.268 912.756 872.27C912.717 872.271 912.679 872.271 912.645 872.272C912.613 872.272 912.583 872.273 912.556 872.273L912.476 872.273L912.441 872.273L912.425 872.273C912.418 872.273 912.41 872.273 912.41 857.273V872.273H759.229Z" fill="#2B4C95" stroke="white" stroke-width="30"/>
<path d="M780.772 649.802C752.703 649.802 725.784 638.651 705.936 618.804C686.089 598.956 674.938 572.037 674.938 543.968C674.938 515.9 686.089 488.98 705.936 469.133C725.784 449.285 752.703 438.135 780.772 438.135C808.84 438.135 835.76 449.285 855.607 469.133C875.455 488.98 886.605 515.9 886.605 543.968C886.605 572.037 875.455 598.956 855.607 618.804C835.76 638.651 808.84 649.802 780.772 649.802Z" fill="#2B4C95" stroke="white" stroke-width="30"/>
<path fill-rule="evenodd" clip-rule="evenodd" d="M533.68 204.084C575.284 204.084 591.469 231.774 591.469 282.429V320.523H564.786V238.744H533.964V320.613H510.389V101.238H534.609C543.675 101.238 557.448 103.277 567.172 115.373C572.241 121.479 575.349 129.625 576.445 137.809H533.964V149.879H576.819C576.471 157.676 574.897 166.402 567.25 175.658C560.543 184.062 549.504 191.872 533.938 191.872C533.861 191.872 533.77 191.872 533.68 191.872V204.084ZM625 286.998C625 241.998 610.479 211.752 572.834 198.443C584.711 193.576 591.946 186.076 596.679 180.383C605.72 169.978 609.421 157.198 609.421 145.128C609.421 135.369 606.739 115.889 589.625 102.477C577.889 93.3891 567.495 89.0129 542.643 89.0129H530.069C529.682 89 529.295 89 528.831 89H477V334H625V286.998Z" fill="white"/>
<defs>
<radialGradient id="paint0_radial_212_90" cx="0" cy="0" r="1" gradientUnits="userSpaceOnUse" gradientTransform="translate(556.098 551.574) rotate(60.5327) scale(549.029)">
<stop stop-color="#102D69"/>
<stop offset="1" stop-color="#102D69" stop-opacity="0.9"/>
</radialGradient>
</defs>
</svg>
