<svg width="25" height="25" viewBox="0 0 25 25" fill="none" xmlns="http://www.w3.org/2000/svg">
<g clip-path="url(#clip0_17_50)">
<path d="M9.375 12.5C10.6182 12.5 11.8105 12.0061 12.6896 11.1271C13.5686 10.248 14.0625 9.0557 14.0625 7.8125C14.0625 6.5693 13.5686 5.37701 12.6896 4.49794C11.8105 3.61886 10.6182 3.125 9.375 3.125C8.1318 3.125 6.93951 3.61886 6.06044 4.49794C5.18136 5.37701 4.6875 6.5693 4.6875 7.8125C4.6875 9.0557 5.18136 10.248 6.06044 11.1271C6.93951 12.0061 8.1318 12.5 9.375 12.5ZM12.5 7.8125C12.5 8.6413 12.1708 9.43616 11.5847 10.0222C10.9987 10.6083 10.2038 10.9375 9.375 10.9375C8.5462 10.9375 7.75134 10.6083 7.16529 10.0222C6.57924 9.43616 6.25 8.6413 6.25 7.8125C6.25 6.9837 6.57924 6.18884 7.16529 5.60279C7.75134 5.01674 8.5462 4.6875 9.375 4.6875C10.2038 4.6875 10.9987 5.01674 11.5847 5.60279C12.1708 6.18884 12.5 6.9837 12.5 7.8125ZM18.75 20.3125C18.75 21.875 17.1875 21.875 17.1875 21.875H1.5625C1.5625 21.875 0 21.875 0 20.3125C0 18.75 1.5625 14.0625 9.375 14.0625C17.1875 14.0625 18.75 18.75 18.75 20.3125ZM17.1875 20.3062C17.1859 19.9219 16.9469 18.7656 15.8875 17.7062C14.8688 16.6875 12.9516 15.625 9.375 15.625C5.79688 15.625 3.88125 16.6875 2.8625 17.7062C1.80313 18.7656 1.56562 19.9219 1.5625 20.3062H17.1875Z" fill="#28A745"/>
<path fill-rule="evenodd" clip-rule="evenodd" d="M24.7719 8.04062C24.8446 8.1132 24.9024 8.19941 24.9417 8.29432C24.9811 8.38924 25.0014 8.49099 25.0014 8.59375C25.0014 8.69651 24.9811 8.79826 24.9417 8.89318C24.9024 8.98809 24.8446 9.0743 24.7719 9.14688L20.0844 13.8344C20.0118 13.9071 19.9256 13.9649 19.8307 14.0042C19.7358 14.0436 19.634 14.0639 19.5313 14.0639C19.4285 14.0639 19.3267 14.0436 19.2318 14.0042C19.1369 13.9649 19.0507 13.9071 18.9781 13.8344L16.6344 11.4906C16.4877 11.3439 16.4053 11.145 16.4053 10.9375C16.4053 10.73 16.4877 10.5311 16.6344 10.3844C16.7811 10.2377 16.98 10.1553 17.1875 10.1553C17.395 10.1553 17.5939 10.2377 17.7406 10.3844L19.5313 12.1766L23.6656 8.04062C23.7382 7.96787 23.8244 7.91015 23.9193 7.87076C24.0142 7.83138 24.116 7.8111 24.2188 7.8111C24.3215 7.8111 24.4233 7.83138 24.5182 7.87076C24.6131 7.91015 24.6993 7.96787 24.7719 8.04062Z" fill="#28A745"/>
</g>
<defs>
<clipPath id="clip0_17_50">
<rect width="25" height="25" fill="white"/>
</clipPath>
</defs>
</svg>
