<svg width="27" height="30" viewBox="0 0 27 30" fill="none" xmlns="http://www.w3.org/2000/svg">
<g clip-path="url(#clip0_183_37)">
<path d="M0 7.5C0 6.50544 0.345702 5.55161 0.961056 4.84835C1.57641 4.14509 2.41101 3.75 3.28125 3.75H22.9688C23.839 3.75 24.6736 4.14509 25.2889 4.84835C25.9043 5.55161 26.25 6.50544 26.25 7.5V22.5C26.25 23.4946 25.9043 24.4484 25.2889 25.1516C24.6736 25.8549 23.839 26.25 22.9688 26.25H3.28125C2.41101 26.25 1.57641 25.8549 0.961056 25.1516C0.345702 24.4484 0 23.4946 0 22.5V7.5ZM3.28125 5.625C2.84613 5.625 2.42883 5.82254 2.12115 6.17417C1.81348 6.52581 1.64062 7.00272 1.64062 7.5V7.90688L13.125 15.7819L24.6094 7.90688V7.5C24.6094 7.00272 24.4365 6.52581 24.1288 6.17417C23.8212 5.82254 23.4039 5.625 22.9688 5.625H3.28125ZM24.6094 10.0931L16.8033 15.4462L24.6094 20.8388V10.095V10.0931ZM24.5536 22.9894L15.2102 16.5375L13.125 17.9681L11.0381 16.5375L1.69641 22.9875C1.79025 23.3858 1.99639 23.7376 2.28291 23.9885C2.56943 24.2393 2.92033 24.3752 3.28125 24.375H22.9688C23.3295 24.3753 23.6802 24.2397 23.9667 23.9892C24.2532 23.7387 24.4594 23.3873 24.5536 22.9894ZM1.64062 20.8388L9.44672 15.4462L1.64062 10.0931V20.8369V20.8388Z" fill="#003399"/>
</g>
<defs>
<clipPath id="clip0_183_37">
<rect width="26.25" height="30" fill="white"/>
</clipPath>
</defs>
</svg>
