<svg width="16" height="16" viewBox="0 0 16 16" fill="none" xmlns="http://www.w3.org/2000/svg">
<g clip-path="url(#clip0_18_436)">
<path d="M8.5 10C8.224 10 8 9.552 8 9C8 8.448 8.224 8 8.5 8C8.776 8 9 8.448 9 9C9 9.552 8.776 10 8.5 10Z" fill="#004ADD"/>
<path d="M10.828 0.121992C10.8821 0.168995 10.9254 0.227072 10.9551 0.29229C10.9848 0.357507 11.0001 0.42834 11 0.499992V0.999992H11.5C11.8978 0.999992 12.2794 1.15803 12.5607 1.43933C12.842 1.72064 13 2.10217 13 2.49999V15H14.5C14.6326 15 14.7598 15.0527 14.8536 15.1464C14.9473 15.2402 15 15.3674 15 15.5C15 15.6326 14.9473 15.7598 14.8536 15.8535C14.7598 15.9473 14.6326 16 14.5 16H1.5C1.36739 16 1.24021 15.9473 1.14645 15.8535C1.05268 15.7598 1 15.6326 1 15.5C1 15.3674 1.05268 15.2402 1.14645 15.1464C1.24021 15.0527 1.36739 15 1.5 15H3V1.49999C3.00002 1.37952 3.04353 1.26311 3.12253 1.17217C3.20154 1.08122 3.31072 1.02186 3.43 1.00499L10.43 0.00499162C10.5008 -0.00512643 10.573 8.29212e-05 10.6417 0.0202676C10.7104 0.0404522 10.7739 0.0751418 10.828 0.121992ZM11.5 1.99999H11V15H12V2.49999C12 2.36738 11.9473 2.24021 11.8536 2.14644C11.7598 2.05267 11.6326 1.99999 11.5 1.99999ZM4 1.93399V15H10V1.07699L4 1.93399Z" fill="#004ADD"/>
</g>
<defs>
<clipPath id="clip0_18_436">
<rect width="16" height="16" fill="white"/>
</clipPath>
</defs>
</svg>
