<svg width="20" height="20" viewBox="0 0 20 20" fill="none" xmlns="http://www.w3.org/2000/svg">
<g clip-path="url(#clip0_183_4)">
<path d="M14.6764 12.93C15.8868 11.2784 16.4289 9.23061 16.1943 7.19644C15.9597 5.16226 14.9657 3.29168 13.4111 1.95892C11.8566 0.626155 9.85611 -0.070492 7.80997 0.00834944C5.76383 0.0871909 3.82291 0.935706 2.37551 2.38414C0.928114 3.83257 0.0809882 5.7741 0.0036109 7.82029C-0.0737664 9.86649 0.624312 11.8665 1.95818 13.4201C3.29206 14.9737 5.16336 15.9663 7.1977 16.1995C9.23204 16.4326 11.2794 15.8891 12.9302 14.6775H12.9289C12.9664 14.7275 13.0064 14.775 13.0514 14.8213L17.8639 19.6338C18.0983 19.8683 18.4163 20.0001 18.7479 20.0003C19.0794 20.0004 19.3975 19.8688 19.632 19.6344C19.8666 19.4 19.9984 19.082 19.9986 18.7504C19.9987 18.4189 19.8671 18.1008 19.6327 17.8663L14.8202 13.0538C14.7755 13.0085 14.7274 12.9667 14.6764 12.9288V12.93ZM14.9989 8.125C14.9989 9.02784 14.8211 9.92184 14.4756 10.756C14.1301 11.5901 13.6237 12.348 12.9853 12.9864C12.3469 13.6248 11.589 14.1312 10.7549 14.4767C9.92076 14.8222 9.02676 15 8.12393 15C7.22109 15 6.32709 14.8222 5.49298 14.4767C4.65886 14.1312 3.90097 13.6248 3.26257 12.9864C2.62416 12.348 2.11775 11.5901 1.77225 10.756C1.42675 9.92184 1.24893 9.02784 1.24893 8.125C1.24893 6.30164 1.97325 4.55296 3.26257 3.26364C4.55188 1.97433 6.30056 1.25 8.12393 1.25C9.94729 1.25 11.696 1.97433 12.9853 3.26364C14.2746 4.55296 14.9989 6.30164 14.9989 8.125Z" fill="black"/>
</g>
<defs>
<clipPath id="clip0_183_4">
<rect width="20" height="20" fill="white"/>
</clipPath>
</defs>
</svg>
